<?xml version="1.0" encoding="UTF-8"?>
<svg id="Laag_1" xmlns="http://www.w3.org/2000/svg" version="1.1" viewBox="0 0 850.4 141.7">
  <!-- Generator: Adobe Illustrator 29.1.0, SVG Export Plug-In . SVG Version: 2.1.0 Build 142)  -->
  <defs>
    <style>
      .st0 {
        fill: #005baa;
      }

      .st1 {
        fill: #fff;
      }

      .st2 {
        fill: #2d5eac;
      }

      .st3 {
        fill: #1c75bc;
      }
    </style>
  </defs>
  <g>
    <rect class="st0" x="47.8" y="8.1" width="130.4" height="130.4" rx="14.4" ry="14.4"/>
    <path class="st1" d="M91.3,58.9v26.5h-26.5v-26.5h26.5M94.6,55.5h-33.2v33.2h33.2v-33.2h0Z"/>
    <path class="st1" d="M114.4,58.9c7.3,0,13.3,5.9,13.3,13.3s-5.9,13.3-13.3,13.3-13.3-5.9-13.3-13.3,5.9-13.3,13.3-13.3M114.4,55.5c-9.2,0-16.6,7.4-16.6,16.6s7.4,16.6,16.6,16.6,16.6-7.4,16.6-16.6-7.4-16.6-16.6-16.6h0Z"/>
    <polygon class="st1" points="167.2 55.4 162.5 55.4 148.1 69.8 133.7 55.4 129 55.4 145.7 72.1 129.2 88.7 133.9 88.6 148.1 74.5 162.3 88.7 167 88.7 150.5 72.1 167.2 55.4"/>
  </g>
  <g>
    <rect class="st0" x="-150.2" y="8.1" width="130.4" height="130.4" rx="14.4" ry="14.4"/>
    <path class="st1" d="M-106.8,58.9v26.5h-26.5v-26.5h26.5M-103.5,55.5h-33.2v33.2h33.2v-33.2h0Z"/>
    <path class="st1" d="M-83.7,58.9c7.3,0,13.3,5.9,13.3,13.3s-5.9,13.3-13.3,13.3-13.3-5.9-13.3-13.3,5.9-13.3,13.3-13.3M-83.7,55.5c-9.2,0-16.6,7.4-16.6,16.6s7.4,16.6,16.6,16.6,16.6-7.4,16.6-16.6-7.4-16.6-16.6-16.6h0Z"/>
    <polygon class="st1" points="-30.9 55.4 -35.6 55.4 -50 69.8 -64.3 55.4 -69.1 55.4 -52.3 72.1 -68.9 88.7 -64.1 88.6 -50 74.5 -35.8 88.7 -31.1 88.7 -47.6 72.1 -30.9 55.4"/>
  </g>
  <g>
    <g>
      <path class="st3" d="M246.5,49.2c8.1,0,12.7,4.8,14.1,14.3l14.9-2.1c-3.2-17.6-13.1-26.4-29.9-26.4s-18.7,3.8-24.9,11.3c-6.2,7.6-9.3,17.1-9.3,28.7s2.9,20.7,8.6,28.4c5.7,7.7,13.8,11.6,24.4,11.6s14.5-2.3,20-6.9,9.2-11.7,11.2-21.4l-14.9-1.5c-2.5,9.8-7.5,14.7-15.1,14.7s-8.8-2.1-11.6-6.3c-2.8-4.2-4.1-10.2-4.1-17.9s1.3-13.5,4-18.7c2.7-5.1,6.9-7.7,12.8-7.7h-.2Z"/>
      <path class="st3" d="M322.7,36.3c-11.2,0-20.1,3.8-26.6,11.4s-9.8,17.2-9.8,28.8,3.2,21.9,9.7,29,15,10.7,25.7,10.7,16.2-2.3,22.1-6.8,9.8-10.2,11.9-17.2l-15.7-2.1c-3,8.3-8.8,12.5-17.3,12.5s-8.1-1.2-11-3.5-4.9-5.1-5.9-8.2-1.5-7.3-1.5-12.5h52.7v-2c0-11.8-2.9-21.4-8.9-28.9s-14.4-11.2-25.4-11.2h0ZM304.3,67.2c.6-6,2.4-10.6,5.6-13.9s7.2-4.9,11.9-4.9,8.9,1.7,12.1,5.2,4.9,8,5,13.5h-34.7.1Z"/>
      <path class="st3" d="M414.9,37.9s-4.9-2.2-11.1-2.3c-11.7,0-21.7,8.5-23.3,9.9v-8.3h-15.8v76.8h17.3v-39.4c.6-10.8,4.3-18.8,7.5-21.4,2.6-2.2,5.7-3.2,5.7-3.2,1.2-.4,2.3-.8,3.8-.8,2.3,0,4,.9,5.2,1.4,1.7.9,2.9,1.9,3.3,2.2,2.8,2.5,4,7.6,3.3,13.2v48h17.3v-49.6c0-10.7-2.4-18.2-7.2-22.4s-4-3.1-6.2-4.1h.2Z"/>
      <path class="st3" d="M461.4,97.9c-1.7-1.7-2.6-5-2.6-9.8v-37.5h15.4v-13.5h-15.4V15.8l-14.2,1.3-1.6,20h-10.6v13.5h9.6v39.7c0,6.7.8,11.6,2.3,14.9,1.5,3.2,4,5.8,7.3,7.6s7.3,2.8,12,2.8,6.8-.6,12-1.7v-13.5c-1.5,0-3,.2-4.3.2-4.9,0-8.2-.9-9.9-2.6h0Z"/>
      <path class="st3" d="M509.4,40.2c-3.9,3.3-7,8.5-9.2,15.7v-18.3h-15.7v76.8h17.3v-35.6c0-5.3,1.4-10.7,4.3-16.3,2.9-5.6,8.7-8.4,17.5-8.4v-18.6h-2.3c-4.1,0-8.1,1.6-12,4.9v-.2Z"/>
      <rect class="st3" x="529.3" y="12.8" width="17.3" height="18"/>
      <rect class="st3" x="529.3" y="39.8" width="17.3" height="76.8"/>
    </g>
    <g>
      <path class="st2" d="M631.8,8.1v111.5h-22.5v-12.9c-5.6,9.8-13.1,14.6-22.7,14.6s-16.3-3.7-21.6-11.2-7.9-17.7-7.9-30.9,2.6-24.5,7.9-32.2c5.3-7.8,12.9-11.6,22.9-11.6s15.5,3.5,20.3,10.4V8.1h23.6ZM608.2,71.8c0-13-3.9-19.4-11.8-19.4s-14.1,9.2-14.1,27.5,4.4,24.4,13.2,24.4,6.4-1.5,8.9-4.4,3.8-7.1,3.8-12.6v-15.4h0Z"/>
      <path class="st2" d="M675.1,35.5c12.6,0,22.4,4.1,29.4,12.3s10.6,18.5,10.6,30.9-3.7,22.4-11,30.5-17,12.2-29.2,12.2-21.2-4-28.2-12.1-10.6-18.4-10.6-31,1.6-16.2,4.8-22.3,7.5-11.1,13.1-14.8c5.6-3.8,12.6-5.6,21.1-5.6h0ZM675.7,51.5c-4.6,0-8.1,1.8-10.4,5.4-2.3,3.6-3.5,10.7-3.5,21.3s1.1,16.7,3.3,21c2.2,4.2,5.7,6.4,10.4,6.4s7.5-1.8,10-5.4c2.6-3.6,3.8-10.5,3.8-20.7s-1.1-18.2-3.4-22.1c-2.3-3.9-5.7-5.8-10.3-5.8h.1Z"/>
      <path class="st2" d="M787.2,37.2l-23.8,38.2,27.8,44.3h-27.8l-17.1-28.5-16.9,28.5h-20.8l27.3-44.5-23.5-38h27.8l13.1,22.3,13.1-22.3h20.8Z"/>
    </g>
  </g>
</svg>