<?xml version="1.0" encoding="UTF-8" standalone="no"?>
<!-- Created with Inkscape (http://www.inkscape.org/) -->

<svg
   width="512"
   height="512"
   viewBox="0 0 512 512"
   version="1.1"
   id="svg1"
   xml:space="preserve"
   inkscape:version="1.3.2 (091e20e, 2023-11-25, custom)"
   sodipodi:docname="logo.svg"
   xmlns:inkscape="http://www.inkscape.org/namespaces/inkscape"
   xmlns:sodipodi="http://sodipodi.sourceforge.net/DTD/sodipodi-0.dtd"
   xmlns="http://www.w3.org/2000/svg"
   xmlns:svg="http://www.w3.org/2000/svg"><sodipodi:namedview
     id="namedview1"
     pagecolor="#505050"
     bordercolor="#eeeeee"
     borderopacity="1"
     inkscape:showpageshadow="0"
     inkscape:pageopacity="0"
     inkscape:pagecheckerboard="0"
     inkscape:deskcolor="#505050"
     inkscape:document-units="px"
     inkscape:zoom="1.5742187"
     inkscape:cx="170.24318"
     inkscape:cy="188.34739"
     inkscape:window-width="1920"
     inkscape:window-height="1025"
     inkscape:window-x="-8"
     inkscape:window-y="-8"
     inkscape:window-maximized="1"
     inkscape:current-layer="layer1" /><defs
     id="defs1" /><g
     inkscape:label="Layer 1"
     inkscape:groupmode="layer"
     id="layer1"><path
       id="rect1"
       style="fill:#c20001;fill-opacity:1;stroke-width:7.44237;paint-order:fill markers stroke"
       d="M 443.00195 75.525391 C 438.62374 75.442415 434.09046 75.840543 430.27734 75.59375 L 161.98438 75.59375 C 152.96274 79.437284 151.48866 89.896208 160.55664 94.808594 L 208.35742 95.285156 C 222.15121 102.34131 207.67506 113.82986 197.49805 110.39648 C 182.69598 110.65317 167.89385 110.90934 153.0918 111.16602 C 134.27776 114.76195 148.51633 133.60047 161.71484 129.48633 C 171.54501 129.73209 181.37491 129.9769 191.20508 130.22266 C 202.56027 138.79158 188.57451 149.54421 177.52344 147.60742 C 171.09556 147.92809 163.74762 146.02525 159.1543 150.29297 C 150.62687 159.90615 160.63264 169.50313 170.94531 166.14453 C 207.66074 166.24043 244.37637 166.33578 281.0918 166.43164 C 289.57854 175.8276 279.51468 185.98849 269.2793 182.52734 C 250.98381 182.34972 232.68807 182.17176 214.39258 181.99414 C 199.68448 187.52743 210.36113 205.73655 222.71289 201.28906 C 251.48972 201.10429 280.26615 200.91914 309.04297 200.73438 C 319.85275 208.43454 309.30664 220.71511 298.88867 217.05078 C 283.11012 217.22358 267.33324 217.39556 251.55469 217.56836 C 236.06225 221.58424 247.33306 240.75948 259.55469 235.50195 L 288.39648 235.03711 C 299.03726 244.05458 288.14673 254.50451 277.76172 251.2832 C 271.67269 251.3734 265.58316 251.46247 259.49414 251.55273 C 246.26017 259.03882 256.36129 274.05477 268.44531 270.24219 L 308.08984 271.24609 C 317.85913 281.41739 304.84336 287.74507 295.625 285.56445 C 274.37077 286.08545 253.11556 286.60595 231.86133 287.12695 C 219.07409 294.75413 232.24184 308.15821 243.03906 304.3457 C 256.1467 304.4292 269.25564 304.51221 282.36328 304.5957 C 294.39664 313.81595 280.24619 323.75592 270.23047 320.47656 L 243.61328 320.47656 C 231.91893 328.23789 241.70349 343.51784 253.51953 339.02344 L 295.38477 338.26367 C 307.04661 345.94657 295.00562 358.4265 284.62109 354.89062 L 254.73047 355.41406 C 240.93639 362.35551 253.28998 376.93705 264.63281 373.23047 C 271.64309 373.81144 283.48522 370.96733 281.87695 382.33789 C 280.71637 392.39309 269.40092 388.23107 262.58594 389.08203 C 250.85243 384.95636 246.84837 406.88125 258.875 407.18555 L 287.76172 407.18555 C 299.85181 414.78696 288.45474 426.38031 278.1875 422.95117 C 269.03457 418.81689 257.03725 436.58346 270.64453 434.66602 L 340.48633 434.66602 C 351.20846 432.43596 352.19607 421.33121 351.41406 412.52148 C 351.90064 328.58628 352.38648 244.65005 352.87305 160.71484 C 355.07457 149.27149 367.03993 150.21079 375.82031 150.55078 L 448.47656 150.55078 C 460.46813 148.82751 461.2626 135.62669 460.54688 126.0332 C 460.01323 112.42727 461.69918 98.577987 459.53711 85.148438 C 457.16299 77.136498 450.29897 75.663683 443.00195 75.525391 z M 91.15625 111.64258 C 88.810886 112.88242 87.007021 115.13855 86.412109 117.73438 C 85.383884 121.90455 87.875761 126.05969 91.15625 128.47656 L 131.38672 128.47656 C 134.25585 127.2525 136.24514 124.30228 136.71484 121.24609 C 137.42574 117.30802 135.00587 113.35475 131.49414 111.64258 L 91.15625 111.64258 z M 56.535156 111.96094 C 53.906114 113.44728 51.997 116.1729 51.710938 119.20312 C 51.278253 122.99784 53.396068 126.74761 56.535156 128.79492 L 72.8125 128.79492 C 73.358945 128.74582 73.962906 128.89869 74.46875 128.70508 C 77.69526 126.74044 80.183869 123.07335 79.794922 119.18164 C 79.500527 115.97394 77.073962 113.39467 74.322266 111.96094 L 56.535156 111.96094 z M 120.05859 146.26367 C 118.95141 146.41348 117.89959 146.88514 117.0293 147.58203 C 114.07178 150.03208 113.0573 154.40123 114.2168 158.00195 C 115.02308 160.62499 117.37987 162.60184 120.05859 163.09766 L 134.66992 163.09766 C 137.23937 161.15554 139.13124 158.12727 139.21094 154.85156 C 139.32876 151.42819 137.2619 148.32845 134.66992 146.26367 L 120.05859 146.26367 z M 147.05664 180.24805 C 145.00206 181.00979 143.60056 182.90076 142.85156 184.89258 C 140.98658 189.26055 142.79368 194.86898 147.05664 197.08203 L 185.91797 197.08203 C 187.58335 197.30247 189.17011 196.40724 190.13477 195.06641 C 193.72944 190.54498 192.16462 183.29601 187.39453 180.24805 L 147.05664 180.24805 z M 120.37695 250.59961 C 119.48765 251.46857 118.66567 252.4123 117.96289 253.43945 C 114.54684 257.66131 115.22151 264.91662 120.37695 267.43359 L 226.30469 267.43359 C 229.10529 268.04525 231.13602 265.69991 232.46289 263.50586 C 235.28188 259.0536 232.77099 253.28921 228.68555 250.59961 L 120.37695 250.59961 z M 183.90039 285.0625 C 179.50072 286.13374 176.46598 290.91628 177.27734 295.35352 C 177.82249 298.68168 180.77553 301.06195 183.90039 301.89648 L 210.58008 301.89648 C 213.60157 300.02593 216.09535 296.78103 216.12305 293.10938 C 216.12706 289.5691 213.4338 286.77525 210.58008 285.0625 L 183.90039 285.0625 z M 208.03906 320.95312 C 205.21209 322.59074 202.74309 325.37925 202.55664 328.77539 C 202.29963 332.55605 204.8249 336.02852 208.03906 337.78711 L 226.71094 337.78711 C 229.46022 336.1128 231.47781 333.0946 231.75195 329.8418 C 232.13693 326.23295 230.15409 322.42242 226.7793 320.95312 L 208.03906 320.95312 z M 183.58398 355.25586 C 180.59906 355.74612 177.4258 357.22331 176.1875 360.16992 C 174.0808 365.29436 178.29038 371.37367 183.58398 372.08984 L 223.80664 372.08984 C 227.17404 370.52922 229.48684 366.87474 229.63672 363.16406 C 229.89684 359.57744 227.31705 356.24706 223.91992 355.25586 L 183.58398 355.25586 z M 217.56836 389.55859 C 214.66025 391.38689 211.84896 394.24593 211.73242 397.88867 C 211.60868 401.60623 214.31084 404.89412 217.56836 406.39258 L 230.99414 406.39258 C 231.8739 406.33628 232.79199 406.52972 233.63672 406.23828 C 237.6099 404.94894 240.01459 400.45834 239.24219 396.41602 C 238.72069 393.19238 236.13909 390.62597 233.13086 389.55859 L 217.56836 389.55859 z " /></g></svg>
