<?xml version="1.0" encoding="UTF-8"?>
<svg id="Laag_1" xmlns="http://www.w3.org/2000/svg" version="1.1" viewBox="0 0 141.7 141.7">
  <!-- Generator: Adobe Illustrator 29.1.0, SVG Export Plug-In . SVG Version: 2.1.0 Build 142)  -->
  <defs>
    <style>
      .st0 {
        fill: #fff;
      }

      .st1 {
        fill: #005baa;
      }
    </style>
  </defs>
  <rect class="st1" x="5.7" y="8.1" width="130.4" height="130.4" rx="14.4" ry="14.4"/>
  <path class="st0" d="M49.1,58.9v26.5h-26.5v-26.5h26.5M52.4,55.5H19.2v33.2h33.2v-33.2h0Z"/>
  <path class="st0" d="M72.2,58.9c7.3,0,13.3,5.9,13.3,13.3s-5.9,13.3-13.3,13.3-13.3-5.9-13.3-13.3,5.9-13.3,13.3-13.3M72.2,55.5c-9.2,0-16.6,7.4-16.6,16.6s7.4,16.6,16.6,16.6,16.6-7.4,16.6-16.6-7.4-16.6-16.6-16.6h0Z"/>
  <polygon class="st0" points="125 55.4 120.3 55.4 105.9 69.8 91.6 55.4 86.8 55.4 103.6 72.1 87 88.7 91.8 88.6 105.9 74.5 120.1 88.7 124.8 88.7 108.3 72.1 125 55.4"/>
</svg>